<?xml version="1.0" encoding="utf-8"?>
<!-- Generator: Adobe Illustrator 24.0.1, SVG Export Plug-In . SVG Version: 6.00 Build 0)  -->
<svg version="1.1" id="Layer_1" xmlns="http://www.w3.org/2000/svg" xmlns:xlink="http://www.w3.org/1999/xlink" x="0px" y="0px"
	 viewBox="0 0 100 100" style="enable-background:new 0 0 100 100;" xml:space="preserve">
<style type="text/css">
	.st0{fill:#666666;}
</style>
<g>
	<path class="st0" d="M44.72,54.56c-1.3,1.44-3.03,2.76-5.16,3.02c-2.1,0.13-4.24-0.61-5.82-2.02c-1.58-1.39-2.57-3.43-2.69-5.54
		c-0.13-2.1,0.61-4.24,2.01-5.82c1.39-1.58,3.43-2.57,5.54-2.69c2.1-0.13,4.24,0.61,5.82,2.01c1.58,1.39,2.57,3.43,2.69,5.54
		C47.09,51.22,45.99,53.1,44.72,54.56z M44.72,54.56c0.66-0.74,1.11-1.65,1.31-2.6c0.19-0.95,0.22-1.91,0.08-2.82
		c-0.1-1.85-0.97-3.62-2.35-4.85c-1.38-1.23-3.25-1.88-5.09-1.76c-1.85,0.1-3.62,0.97-4.85,2.35c-1.23,1.38-1.88,3.25-1.76,5.09
		c0.1,1.85,0.97,3.62,2.35,4.85c1.38,1.23,3.25,1.88,5.09,1.76c0.92,0.02,1.87-0.11,2.79-0.41C43.21,55.85,44.06,55.29,44.72,54.56z
		"/>
</g>
<g>
	<polygon class="st0" points="50.29,61.71 44.5,54.5 51.71,60.29 	"/>
</g>
</svg>
