<svg id="Layer_1" data-name="Layer 1" xmlns="http://www.w3.org/2000/svg" viewBox="0 0 20.67 20.2"><defs><style>.cls-1{fill:gray;}</style></defs><title>ic_search</title><path class="cls-1" d="M44.72,54.56a8.6,8.6,0,0,1-5.16,3,8,8,0,1,1,7.55-8.51A8.67,8.67,0,0,1,44.72,54.56Zm0,0A5.79,5.79,0,0,0,46,52a7.94,7.94,0,0,0,.08-2.83,7,7,0,1,0-6.61,7.44,7.94,7.94,0,0,0,2.79-.41A5.81,5.81,0,0,0,44.72,54.56Z" transform="translate(-31.04 -41.51)"/><polygon class="cls-1" points="19.25 20.2 13.46 12.99 20.67 18.78 19.25 20.2"/></svg>